<svg width="61" height="61" viewBox="0 0 61 61" fill="none" xmlns="http://www.w3.org/2000/svg">
<path d="M27.8742 48.9398C38.6185 46.0562 38.6975 46.0957 38.6975 46.0957C38.6975 46.0957 38.974 50.5594 35.0239 51.8234L23.8056 54.865C23.8056 54.865 23.1736 50.4804 27.8742 48.9398ZM38.3025 39.6176C39.9221 38.9065 41.6206 37.6425 43.3981 35.786C47.1113 31.8753 48.2173 28.6363 48.2173 23.0666C48.2173 14.1394 40.7121 6.87115 31.4293 6.87115C22.1466 6.87115 14.6414 14.1394 14.6414 23.0666C14.6414 29.0708 17.0904 34.4824 23.2921 38.314L22.1466 36.339C22.1466 36.9315 22.1071 37.445 21.9886 38.314C21.7911 40.1311 21.7516 40.5261 21.8701 41.3951C22.1071 42.8567 22.9366 44.0417 24.3981 44.7527L25.5042 42.6196L24.0426 44.5157C24.8721 45.1082 25.7807 45.1872 26.8077 45.0687C27.3607 44.9897 27.9532 44.8712 28.7037 44.6737C28.8618 44.6342 29.0593 44.5947 29.2568 44.5157C29.3753 44.4762 29.8098 44.3577 29.8888 44.3182C30.0863 44.2392 30.2443 44.1997 30.4023 44.1602C30.5208 44.1207 30.6393 44.0812 30.7183 44.0812H30.5998V39.3411C30.1258 39.3411 29.7308 39.4201 29.1383 39.5781C28.9408 39.6176 28.7827 39.6966 28.5062 39.7361C28.4272 39.7756 27.9927 39.8941 27.8742 39.9336C27.6767 39.9731 27.5187 40.0126 27.4002 40.0521C26.8867 40.1706 26.5312 40.2891 26.2547 40.2891C26.4127 40.3286 26.6497 40.4076 26.9657 40.6051L26.8077 40.4866L26.6102 40.4076C26.6102 40.4076 26.7287 40.5656 26.7287 40.6051C26.6892 40.3286 26.7287 40.0126 26.8472 38.7485C26.9657 37.7215 27.0052 37.05 27.0052 36.26V34.9564L25.8597 34.2454C21.238 31.4013 19.4605 27.4907 19.4605 22.9876C19.4605 16.6674 24.7931 11.5323 31.3503 11.5323C37.9075 11.5323 43.2401 16.6674 43.2401 22.9876C43.2401 27.4512 42.5291 29.5053 39.7245 32.5074C38.3815 33.9294 37.157 34.7984 36.1695 35.2724C35.8929 35.3909 35.6559 35.4699 35.4584 35.5094C35.5374 35.5094 35.5374 40.2496 35.5374 40.2496C36.2485 40.3286 37.1965 40.1311 38.3025 39.6176Z" fill="#20A99E"/>
<path d="M35.5769 35.7069L40.712 33.7319V40.6446C40.712 42.0666 39.5665 43.2121 38.1445 43.2121H35.5769V35.7069Z" fill="#61B6F2"/>
<path d="M31.4293 32.5468C31.4293 32.5468 38.737 28.0832 38.737 24.0541C38.737 20.025 35.4584 16.7464 31.4293 16.7464C27.4002 16.7464 24.1216 20.025 24.1216 24.0541C24.1216 28.0832 31.4293 32.5468 31.4293 32.5468Z" fill="#A8C8E6"/>
<path d="M31.4293 32.5469C31.4293 32.5469 33.7993 31.0853 35.8534 29.1103C26.6892 19.1165 35.3004 28.6362 26.3731 18.8005C24.9906 20.1435 24.1216 22.0001 24.1216 24.0541C24.1216 28.0832 31.4293 32.5469 31.4293 32.5469Z" fill="#61B6F2"/>
<path d="M31.4292 32.5469C31.4292 32.5469 33.8783 31.0458 35.9323 29.0313C37.4334 27.5302 38.7369 25.7527 38.7369 24.0541C38.7369 21.8421 38.0654 19.077 36.3668 18.8005C31.9822 24.0541 36.3668 18.9585 31.5872 24.6071C31.4292 32.9419 31.4292 32.5469 31.4292 32.5469Z" fill="#20A99E"/>
</svg>
