<svg width="116" height="35" viewBox="0 0 116 35" fill="none" xmlns="http://www.w3.org/2000/svg">
<path d="M8.77841 20.3348C8.74053 19.8613 8.56297 19.492 8.24574 19.2268C7.93324 18.9617 7.45739 18.8291 6.81818 18.8291C6.41098 18.8291 6.07718 18.8788 5.81676 18.9782C5.56108 19.0729 5.37169 19.2031 5.24858 19.3689C5.12547 19.5346 5.06155 19.724 5.05682 19.9371C5.04735 20.1122 5.07813 20.2709 5.14915 20.4129C5.22491 20.5502 5.34328 20.6757 5.50426 20.7893C5.66525 20.8982 5.87121 20.9977 6.12216 21.0876C6.37311 21.1776 6.6714 21.2581 7.01705 21.3291L8.21023 21.5848C9.01515 21.7552 9.70407 21.9801 10.277 22.2595C10.8499 22.5388 11.3187 22.8679 11.6832 23.2467C12.0478 23.6208 12.3153 24.0422 12.4858 24.5109C12.661 24.9797 12.7509 25.491 12.7557 26.045C12.7509 27.0014 12.5118 27.8111 12.0384 28.474C11.5649 29.1369 10.8878 29.6411 10.0071 29.9868C9.13116 30.3324 8.07765 30.5052 6.84659 30.5052C5.58239 30.5052 4.47917 30.3182 3.53693 29.9442C2.59943 29.5701 1.87027 28.9948 1.34943 28.2183C0.833333 27.4371 0.572917 26.438 0.568182 25.2211H4.31818C4.34186 25.6662 4.45313 26.0403 4.65199 26.3433C4.85085 26.6463 5.13021 26.876 5.49006 27.0322C5.85464 27.1885 6.28788 27.2666 6.78977 27.2666C7.21117 27.2666 7.56392 27.2145 7.84801 27.1103C8.1321 27.0062 8.34754 26.8618 8.49432 26.6771C8.6411 26.4924 8.71686 26.2817 8.72159 26.045C8.71686 25.8225 8.64347 25.6283 8.50142 25.4626C8.36411 25.2922 8.13684 25.1406 7.8196 25.0081C7.50237 24.8708 7.07386 24.7429 6.53409 24.6246L5.08523 24.3121C3.79735 24.0327 2.78172 23.5663 2.03835 22.9129C1.29972 22.2548 0.932765 21.3575 0.9375 20.2211C0.932765 19.2978 1.17898 18.4906 1.67614 17.7993C2.17803 17.1032 2.87169 16.5611 3.7571 16.1728C4.64725 15.7846 5.66761 15.5905 6.81818 15.5905C7.99242 15.5905 9.00805 15.787 9.86506 16.1799C10.7221 16.5729 11.3826 17.1269 11.8466 17.8419C12.3153 18.5521 12.5521 19.3831 12.5568 20.3348H8.77841ZM20.8203 19.4257V22.2666H13.6328V19.4257H20.8203ZM15.0249 16.8121H18.9453V26.8263C18.9453 26.9778 18.9714 27.1056 19.0234 27.2098C19.0755 27.3092 19.156 27.385 19.2649 27.4371C19.3738 27.4844 19.5135 27.5081 19.6839 27.5081C19.8023 27.5081 19.9396 27.4939 20.0959 27.4655C20.2569 27.4371 20.3752 27.4134 20.451 27.3944L21.0192 30.1501C20.844 30.2022 20.593 30.2661 20.2663 30.3419C19.9444 30.4176 19.5608 30.4674 19.1158 30.491C18.2161 30.5384 17.4609 30.446 16.8501 30.214C16.2393 29.9773 15.7801 29.6056 15.4723 29.099C15.1645 28.5924 15.0154 27.9579 15.0249 27.1956V16.8121ZM25.4599 30.5052C24.7638 30.5052 24.1483 30.3916 23.6133 30.1643C23.083 29.9323 22.6663 29.5819 22.3633 29.1132C22.0603 28.6444 21.9087 28.0478 21.9087 27.3234C21.9087 26.7268 22.0105 26.2178 22.2141 25.7964C22.4177 25.3703 22.7018 25.0223 23.0664 24.7524C23.431 24.4825 23.8548 24.2765 24.3377 24.1345C24.8254 23.9924 25.351 23.9001 25.9144 23.8575C26.5252 23.8102 27.0153 23.7533 27.3846 23.6871C27.7586 23.616 28.0285 23.519 28.1942 23.3959C28.36 23.268 28.4428 23.0999 28.4428 22.8916V22.8632C28.4428 22.5791 28.3339 22.3613 28.1161 22.2098C27.8983 22.0583 27.619 21.9825 27.2781 21.9825C26.904 21.9825 26.5986 22.0654 26.3619 22.2311C26.1299 22.3921 25.9902 22.6406 25.9428 22.9768H22.3349C22.3822 22.3139 22.5929 21.7031 22.967 21.1444C23.3458 20.581 23.8974 20.1312 24.6218 19.795C25.3462 19.4541 26.2506 19.2836 27.3349 19.2836C28.1161 19.2836 28.8169 19.376 29.4371 19.5606C30.0574 19.7406 30.5853 19.9939 31.021 20.3206C31.4566 20.6425 31.788 21.0213 32.0153 21.4569C32.2473 21.8878 32.3633 22.3566 32.3633 22.8632V30.3348H28.6985V28.8007H28.6133C28.3955 29.2079 28.1303 29.537 27.8178 29.7879C27.5101 30.0388 27.1573 30.2211 26.7596 30.3348C26.3666 30.4484 25.9334 30.5052 25.4599 30.5052ZM26.7383 28.0336C27.0366 28.0336 27.3159 27.9721 27.5763 27.849C27.8415 27.7259 28.0569 27.5483 28.2227 27.3163C28.3884 27.0843 28.4712 26.8026 28.4712 26.4711V25.5621C28.3671 25.6047 28.2558 25.6449 28.1374 25.6828C28.0238 25.7207 27.9007 25.7562 27.7681 25.7893C27.6403 25.8225 27.503 25.8532 27.3562 25.8817C27.2141 25.9101 27.065 25.9361 26.9087 25.9598C26.6057 26.0071 26.3571 26.0853 26.163 26.1942C25.9736 26.2983 25.8316 26.4285 25.7369 26.5848C25.6469 26.7363 25.6019 26.9067 25.6019 27.0961C25.6019 27.3992 25.7085 27.6312 25.9215 27.7922C26.1346 27.9531 26.4068 28.0336 26.7383 28.0336ZM34.2365 30.3348V19.4257H38.0433V21.4996H38.157C38.3558 20.7325 38.6707 20.1714 39.1016 19.8163C39.5372 19.4612 40.0462 19.2836 40.6286 19.2836C40.799 19.2836 40.9671 19.2978 41.1328 19.3263C41.3033 19.3499 41.4666 19.3854 41.6229 19.4328V22.778C41.4287 22.7117 41.1896 22.662 40.9055 22.6288C40.6214 22.5957 40.3776 22.5791 40.174 22.5791C39.7905 22.5791 39.4448 22.6667 39.1371 22.8419C38.834 23.0123 38.5949 23.2538 38.4197 23.5663C38.2446 23.8741 38.157 24.2363 38.157 24.653V30.3348H34.2365ZM49.8633 19.4257V22.2666H42.6758V19.4257H49.8633ZM44.0678 16.8121H47.9883V26.8263C47.9883 26.9778 48.0143 27.1056 48.0664 27.2098C48.1185 27.3092 48.199 27.385 48.3079 27.4371C48.4168 27.4844 48.5565 27.5081 48.7269 27.5081C48.8453 27.5081 48.9826 27.4939 49.1388 27.4655C49.2998 27.4371 49.4182 27.4134 49.494 27.3944L50.0621 30.1501C49.887 30.2022 49.636 30.2661 49.3093 30.3419C48.9873 30.4176 48.6038 30.4674 48.1587 30.491C47.2591 30.5384 46.5039 30.446 45.8931 30.214C45.2823 29.9773 44.823 29.6056 44.5153 29.099C44.2075 28.5924 44.0584 27.9579 44.0678 27.1956V16.8121ZM97.358 15.7893H101.307V25.1075C101.307 26.2155 101.042 27.1743 100.511 27.9839C99.9858 28.7888 99.2519 29.4115 98.3097 29.8518C97.3674 30.2874 96.2737 30.5052 95.0284 30.5052C93.7737 30.5052 92.6752 30.2874 91.733 29.8518C90.7907 29.4115 90.0568 28.7888 89.5312 27.9839C89.0104 27.1743 88.75 26.2155 88.75 25.1075V15.7893H92.6989V24.7666C92.6989 25.2164 92.7983 25.6189 92.9972 25.974C93.196 26.3244 93.4706 26.599 93.821 26.7978C94.1761 26.9967 94.5786 27.0961 95.0284 27.0961C95.483 27.0961 95.8854 26.9967 96.2358 26.7978C96.5862 26.599 96.8608 26.3244 97.0597 25.974C97.2585 25.6189 97.358 25.2164 97.358 24.7666V15.7893ZM103.24 34.4257V19.4257H107.132V21.3291H107.218C107.36 20.9598 107.568 20.6212 107.843 20.3135C108.117 20.001 108.458 19.7524 108.865 19.5677C109.273 19.3783 109.746 19.2836 110.286 19.2836C111.006 19.2836 111.69 19.4754 112.338 19.8589C112.992 20.2424 113.522 20.8461 113.929 21.67C114.341 22.4939 114.547 23.5639 114.547 24.8802C114.547 26.1397 114.351 27.1837 113.958 28.0123C113.569 28.8409 113.049 29.4588 112.395 29.866C111.747 30.2732 111.034 30.4768 110.257 30.4768C109.746 30.4768 109.289 30.394 108.887 30.2282C108.489 30.0578 108.148 29.8281 107.864 29.5393C107.585 29.2458 107.369 28.9143 107.218 28.545H107.161V34.4257H103.24ZM107.076 24.8802C107.076 25.4105 107.144 25.8698 107.282 26.2581C107.424 26.6416 107.623 26.9399 107.878 27.153C108.139 27.3613 108.449 27.4655 108.809 27.4655C109.168 27.4655 109.474 27.3637 109.725 27.1601C109.98 26.9517 110.175 26.6558 110.307 26.2723C110.444 25.884 110.513 25.42 110.513 24.8802C110.513 24.3405 110.444 23.8788 110.307 23.4953C110.175 23.107 109.98 22.8111 109.725 22.6075C109.474 22.3992 109.168 22.295 108.809 22.295C108.449 22.295 108.139 22.3992 107.878 22.6075C107.623 22.8111 107.424 23.107 107.282 23.4953C107.144 23.8788 107.076 24.3405 107.076 24.8802Z" fill="#20A99E"/>
<path d="M60.3267 30.3348V33.1189H50.4688V30.3348H60.3267ZM65.2184 15.7893V30.3348H61.2695V15.7893H65.2184ZM66.6921 18.9711V15.7893H79.3342V18.9711H74.9592V30.3348H71.0671V18.9711H66.6921ZM88.608 30.3348V33.1189H78.75V30.3348H88.608Z" fill="black"/>
<path d="M52.4565 10.3694C58.1099 5.66264 64.9662 5.7688 71.5542 6.07248C75.2896 6.24467 79.05 7.65453 80.7891 9.51288" stroke="black" stroke-width="3" stroke-linecap="round"/>
<path d="M80.9777 5.74369C80.6897 7.34188 82.4462 9.60397 83.0979 11.2885C83.3821 12.0232 84.587 12.6764 82.2972 11.885C79.3703 10.8734 77.1313 10.3981 73.9132 10.3252" stroke="black" stroke-width="3" stroke-linecap="round"/>
</svg>
